<svg width="26" height="26" viewBox="0 0 26 26" fill="none" xmlns="http://www.w3.org/2000/svg">
<path d="M25.8976 11.3084C25.8976 8.32229 23.4719 5.89292 20.4904 5.89292C20.0948 5.89292 19.7067 5.93531 19.3283 6.01852L19.7413 5.54897C20.2337 4.98909 20.5049 4.26977 20.5049 3.52364V2.75582C20.5049 2.27525 20.1143 1.88425 19.6342 1.88425H19.3883V1.32265C19.3883 0.593319 18.795 0 18.0657 0H13.9168C13.1875 0 12.5942 0.593319 12.5942 1.32265V1.8843H12.4989C12.0188 1.8843 11.6282 2.2753 11.6282 2.75587V3.5237C11.6282 4.26977 11.8994 4.98904 12.3918 5.54902L13.2937 6.57441C13.4502 6.7524 13.5364 6.98098 13.5364 7.22164C13.5364 7.43161 13.7066 7.59999 13.9165 7.59999C14.1265 7.59999 14.2966 7.42812 14.2966 7.21815C14.2966 6.79605 14.1432 6.38913 13.8646 6.07228L12.9627 5.0469C12.5924 4.62576 12.3885 4.08479 12.3885 3.52359V2.75577C12.3885 2.69436 12.438 2.64439 12.499 2.64439H19.6343C19.6952 2.64439 19.7448 2.69431 19.7448 2.75577V3.52359C19.7448 4.08484 19.5409 4.62581 19.1705 5.0469L18.2687 6.07228C17.9901 6.38902 17.8367 6.796 17.8367 7.22159C17.8367 8.58395 18.2207 9.91419 18.9242 11.0674H13.211C13.6242 10.3911 13.9284 9.65187 14.1089 8.86953C14.156 8.66498 14.0285 8.46094 13.8239 8.41369C13.6194 8.3665 13.4153 8.49412 13.3681 8.69867C13.0613 10.0286 12.3594 11.2223 11.338 12.151C9.82803 13.524 8.03462 15.824 7.96962 19.0289C7.7497 18.9235 7.51363 18.8526 7.27226 18.8179C7.25461 18.2244 7.32036 16.8666 8.15693 15.7094L8.32101 15.4971C8.44797 15.3329 8.41959 15.097 8.25728 14.9675C8.09496 14.838 7.8588 14.8627 7.72683 15.0231C7.66346 15.1 7.60342 15.1778 7.54636 15.2563L6.14349 17.0715C6.0659 16.373 5.83444 15.4956 5.20667 14.8668C4.02277 13.6809 1.95596 13.9059 1.86846 13.916C1.69324 13.9364 1.55506 14.0746 1.53477 14.2499C1.52461 14.3374 1.30013 16.407 2.48368 17.5925C3.20906 18.3191 4.26551 18.5158 4.99544 18.5571L4.46712 19.2407C3.30274 18.7094 2.00735 19.1377 1.06416 20.375C0.936901 20.5419 0.969071 20.7804 1.13604 20.9077C1.30301 21.035 1.54155 21.0028 1.66876 20.8358C2.40088 19.8753 3.3774 19.541 4.21755 19.9634C5.26772 20.4915 5.47055 21.8494 4.72225 23.3425C4.28098 24.223 3.67497 24.8283 3.01574 25.0468C2.57528 25.1929 2.12612 25.1613 1.71666 24.9554C0.785006 24.487 0.508276 23.3829 0.994362 22.0741C1.06745 21.8774 0.9672 21.6586 0.770438 21.5855C0.573677 21.5124 0.354862 21.6126 0.281772 21.8095C-0.340984 23.486 0.0881472 24.9875 1.37514 25.6346C1.96046 25.929 2.63355 25.9746 3.25494 25.7684C3.82211 25.5804 4.33622 25.2042 4.77562 24.6641C5.2658 25.4469 6.0314 25.8976 6.91546 25.8976C7.68515 25.8976 8.37994 25.5534 8.87174 24.9283C9.1376 24.5905 9.33638 24.1806 9.46531 23.7143C9.7729 24.1782 10.1267 24.6405 10.5239 25.0967C10.9673 25.6058 11.61 25.8977 12.2872 25.8977H19.8459C20.5231 25.8977 21.1659 25.6058 21.6092 25.0967C22.8404 23.6829 23.637 22.2393 23.9765 20.8059C24.0249 20.6016 23.8986 20.3968 23.6943 20.3484C23.49 20.3001 23.2852 20.4264 23.2368 20.6306C22.9259 21.9429 22.1854 23.2775 21.0359 24.5974C20.737 24.9406 20.3033 25.1374 19.8459 25.1374H12.2871C11.8298 25.1374 11.3961 24.9406 11.0971 24.5974C10.5011 23.9131 10.0104 23.2172 9.63668 22.5274C9.6424 22.3376 9.63957 22.1475 9.62717 21.9579C9.56946 21.0736 9.31124 20.3198 8.87164 19.761C8.82996 19.708 8.7859 19.6571 8.74048 19.6072C8.73133 19.4723 8.72667 19.3386 8.72667 19.2081C8.72667 16.1871 10.4248 14.0088 11.8495 12.7135C12.1519 12.4385 12.4284 12.1419 12.6789 11.8277H19.4553C19.7054 12.1425 19.9818 12.4392 20.2835 12.7135C21.7082 14.0089 23.4064 16.1871 23.4064 19.2081C23.4064 19.4181 23.5765 19.5882 23.7865 19.5882C23.9965 19.5882 24.1666 19.4181 24.1666 19.2081C24.1666 17.9404 23.8952 16.8119 23.4745 15.8228C24.9772 14.8244 25.8976 13.125 25.8976 11.3084ZM13.3544 1.32265C13.3544 1.01254 13.6067 0.760237 13.9168 0.760237H18.0656C18.3757 0.760237 18.628 1.01254 18.628 1.32265V1.8843H13.3544V1.32265ZM6.5706 17.762C6.51046 18.1939 6.50337 18.5655 6.51091 18.8261C6.06514 18.9002 5.65361 19.0957 5.30708 19.3968L6.5706 17.762ZM3.02156 17.0555C2.33588 16.3687 2.26421 15.2103 2.27336 14.654C2.82763 14.6435 3.98033 14.7146 4.66854 15.4039C5.35422 16.0908 5.42589 17.2491 5.41674 17.8054C4.86287 17.8162 3.70987 17.7448 3.02156 17.0555ZM8.87938 22.3447C8.87938 24.0151 8.09011 25.1374 6.91536 25.1374C6.19205 25.1374 5.59524 24.7087 5.25629 23.9542C5.30606 23.8662 5.35493 23.7765 5.40171 23.6832C5.87278 22.7433 6.03565 21.8255 5.87268 21.0292C5.81243 20.7348 5.70829 20.4633 5.56504 20.2207C5.91107 19.7875 6.38294 19.5518 6.91531 19.5518C8.09011 19.5519 8.87938 20.6743 8.87938 22.3447ZM20.795 12.1511C19.9003 11.3376 19.2505 10.308 18.8985 9.18278C19.356 8.83802 19.9129 8.65026 20.4904 8.65026C21.9533 8.65026 23.1435 9.84266 23.1435 11.3084C23.1435 12.1685 22.7272 12.9686 22.0394 13.4647C21.6302 12.9599 21.2023 12.5215 20.795 12.1511ZM23.1438 15.128C22.9455 14.7525 22.7274 14.4003 22.4973 14.0716C23.3738 13.433 23.9037 12.4089 23.9037 11.3084C23.9037 9.4235 22.3725 7.89002 20.4904 7.89002C19.8544 7.89002 19.2378 8.06691 18.704 8.39594C18.6334 8.0094 18.5968 7.61542 18.5968 7.2182C18.5968 7.16165 18.602 7.10571 18.6116 7.05073C19.2044 6.78705 19.8355 6.65316 20.4904 6.65316C23.0528 6.65316 25.1374 8.74151 25.1374 11.3084C25.1374 12.8335 24.3824 14.2623 23.1438 15.128Z" fill="black"/>
</svg>
